<svg width="28" height="28" viewBox="0 0 28 28" fill="none" xmlns="http://www.w3.org/2000/svg">
<path fill-rule="evenodd" clip-rule="evenodd" d="M11.6649 3.11133C6.93983 3.11133 3.10938 6.94178 3.10938 11.6669C3.10938 16.392 6.93983 20.2224 11.6649 20.2224C13.7474 20.2224 15.6561 19.4784 17.1398 18.2416L23.5594 24.6613C23.8631 24.965 24.3556 24.965 24.6593 24.6613C24.9631 24.3576 24.9631 23.8651 24.6593 23.5614L18.2397 17.1417C19.4764 15.6581 20.2205 13.7494 20.2205 11.6669C20.2205 6.94178 16.39 3.11133 11.6649 3.11133ZM4.66493 11.6669C4.66493 7.80089 7.79894 4.66688 11.6649 4.66688C15.5309 4.66688 18.6649 7.80089 18.6649 11.6669C18.6649 15.5329 15.5309 18.6669 11.6649 18.6669C7.79894 18.6669 4.66493 15.5329 4.66493 11.6669Z" fill="black"/>
</svg>
