<svg width="28" height="28" viewBox="0 0 28 28" fill="none" xmlns="http://www.w3.org/2000/svg">
<path fill-rule="evenodd" clip-rule="evenodd" d="M13.9983 24.8891C20.012 24.8891 24.8872 20.014 24.8872 14.0002C24.8872 7.98645 20.012 3.11133 13.9983 3.11133C7.9845 3.11133 3.10938 7.98645 3.10938 14.0002C3.10938 20.014 7.9845 24.8891 13.9983 24.8891ZM13.9983 4.66688C13.1958 4.66688 12.2226 5.40425 11.4046 7.17652C11.0225 8.00436 10.7063 8.9983 10.482 10.1113H17.5146C17.2902 8.9983 16.974 8.00436 16.5919 7.17652C15.7739 5.40425 14.8007 4.66688 13.9983 4.66688ZM17.7575 11.6669H10.239C10.1546 12.4112 10.1094 13.1926 10.1094 14.0002C10.1094 14.8078 10.1546 15.5893 10.239 16.3336H17.7575C17.8419 15.5893 17.8872 14.8078 17.8872 14.0002C17.8872 13.1926 17.8419 12.4112 17.7575 11.6669ZM8.8978 10.1113C9.14517 8.7691 9.51833 7.55147 9.99224 6.52465C10.1964 6.08239 10.4273 5.65997 10.6842 5.27237C8.39025 6.1439 6.52898 7.89383 5.51122 10.1113H8.8978ZM4.95897 11.6669H8.67427C8.5952 12.4201 8.55382 13.2011 8.55382 14.0002C8.55382 14.7993 8.5952 15.5804 8.67427 16.3336H4.95897C4.76702 15.5878 4.66493 14.8059 4.66493 14.0002C4.66493 13.1945 4.76702 12.4127 4.95897 11.6669ZM19.3223 11.6669H23.0376C23.2295 12.4127 23.3316 13.1945 23.3316 14.0002C23.3316 14.8059 23.2295 15.5878 23.0376 16.3336H19.3223C19.4013 15.5804 19.4427 14.7993 19.4427 14.0002C19.4427 13.2011 19.4013 12.4201 19.3223 11.6669ZM22.4853 10.1113H19.0987C18.8514 8.7691 18.4782 7.55147 18.0043 6.52465C17.8002 6.08239 17.5692 5.65997 17.3123 5.27237C19.6063 6.1439 21.4676 7.89383 22.4853 10.1113ZM8.8978 17.8891H5.51122C6.52898 20.1066 8.39025 21.8565 10.6842 22.7281C10.4273 22.3405 10.1964 21.918 9.99224 21.4758C9.51832 20.449 9.14517 19.2313 8.8978 17.8891ZM16.5919 20.8239C16.974 19.9961 17.2902 19.0021 17.5146 17.8891H10.482C10.7063 19.0021 11.0225 19.9961 11.4046 20.8239C12.2226 22.5962 13.1958 23.3336 13.9983 23.3336C14.8007 23.3336 15.7739 22.5962 16.5919 20.8239ZM18.0043 21.4758C18.4782 20.449 18.8514 19.2313 19.0987 17.8891H22.4853C21.4676 20.1066 19.6063 21.8565 17.3123 22.7281C17.5692 22.3405 17.8002 21.918 18.0043 21.4758Z" fill="#DC202E"/>
</svg>
