<svg width="130" height="38" viewBox="0 0 130 38" fill="none" xmlns="http://www.w3.org/2000/svg">
<path d="M130 0H0V3.38356H98.0221L104.94 26.5479L111.988 3.38356H122.691V38H130V0Z" fill="#EB1F2E"/>
<path d="M115.643 14.0548L115.382 38H108.333L115.643 14.0548Z" fill="#EB1F2E"/>
<path d="M93.9759 14.0548L94.2369 38H101.285L93.9759 14.0548Z" fill="#EB1F2E"/>
<path d="M0 13.5347H6.26506V38.0004H0V13.5347Z" fill="black"/>
<path d="M86.9277 13.5347C86.8407 13.4913 86.5622 13.4045 86.1446 13.4045C85.6225 13.4045 82.751 13.5347 80.6627 16.6579V13.5347H74.3976V38.0004H80.6627V22.384C80.6627 21.2127 82.7249 19.0004 84.7088 19.0004H86.9277V13.5347Z" fill="black"/>
<path d="M36.8072 10.4114L43.0723 7.28809V13.7949H46.4659V17.9593H43.0723V31.4936C43.0723 32.6434 44.0074 34.0963 45.1606 34.0963H46.4659V38.0004H42.0281C39.1446 38.0004 36.8072 35.6699 36.8072 32.7949V17.9593H34.1968V13.7949H36.8072V10.4114Z" fill="black"/>
<path d="M12.5301 13.5347H18.7952V16.3977C18.7952 15.6944 20.9613 13.5347 24.7992 13.5347C28.115 13.5347 30.8032 16.2149 30.8032 19.521V38.0004H24.5382V20.0415C24.5382 18.4603 23.2526 17.1785 21.6667 17.1785C20.0808 17.1785 18.7952 18.4603 18.7952 20.0415V38.0004H12.5301V13.5347Z" fill="black"/>
<path fill-rule="evenodd" clip-rule="evenodd" d="M49.8594 21.8634C49.8594 17.2636 53.5995 13.5347 58.2129 13.5347H60.8233C65.4367 13.5347 69.1767 17.2636 69.1767 21.8634V26.8086H56.1245V30.973C56.1245 32.8417 57.6439 34.3566 59.5181 34.3566C61.3923 34.3566 62.9116 32.8417 62.9116 30.973V29.6716H69.1767C69.1767 34.2714 65.4367 38.0004 60.8233 38.0004H58.2129C53.5995 38.0004 49.8594 34.2714 49.8594 29.6716V21.8634ZM56.1245 23.1648H62.9116V20.5621C62.9116 18.6934 61.3923 17.1785 59.5181 17.1785C57.6439 17.1785 56.1245 18.6934 56.1245 20.5621V23.1648Z" fill="black"/>
</svg>
