<svg width="32" height="32" viewBox="0 0 32 32" fill="none" xmlns="http://www.w3.org/2000/svg">
<path d="M28.2929 29.7071C28.6834 30.0976 29.3166 30.0976 29.7071 29.7071C30.0976 29.3166 30.0976 28.6834 29.7071 28.2929L28.2929 29.7071ZM8 4H25V2H8V4ZM26 5V18H28V5H26ZM5 5V27H7V5H5ZM8 30H19V28H8V30ZM10 10H23V8H10V10ZM10 16H23V14H10V16ZM10 22H16V20H10V22ZM26 23C26 24.6569 24.6569 26 23 26V28C25.7614 28 28 25.7614 28 23H26ZM23 26C21.3431 26 20 24.6569 20 23H18C18 25.7614 20.2386 28 23 28V26ZM20 23C20 21.3431 21.3431 20 23 20V18C20.2386 18 18 20.2386 18 23H20ZM23 20C24.6569 20 26 21.3431 26 23H28C28 20.2386 25.7614 18 23 18V20ZM25.2929 26.7071L28.2929 29.7071L29.7071 28.2929L26.7071 25.2929L25.2929 26.7071ZM5 27C5 28.6569 6.34315 30 8 30V28C7.44772 28 7 27.5523 7 27H5ZM25 4C25.5523 4 26 4.44772 26 5H28C28 3.34315 26.6569 2 25 2V4ZM8 2C6.34315 2 5 3.34315 5 5H7C7 4.44772 7.44772 4 8 4V2Z" fill="black"/>
</svg>
