<svg width="32" height="32" viewBox="0 0 32 32" fill="none" xmlns="http://www.w3.org/2000/svg">
<path d="M2 3H6L6.94737 9M6.94737 9L8.73346 20.3119C8.88695 21.284 9.72484 22 10.709 22H23.409C24.3403 22 25.1483 21.3572 25.3578 20.4497L27.4347 11.4497C27.7239 10.1965 26.7721 9 25.4859 9H6.94737ZM14 27C14 28.1046 13.1046 29 12 29C10.8954 29 10 28.1046 10 27C10 25.8954 10.8954 25 12 25C13.1046 25 14 25.8954 14 27ZM24 27C24 28.1046 23.1046 29 22 29C20.8954 29 20 28.1046 20 27C20 25.8954 20.8954 25 22 25C23.1046 25 24 25.8954 24 27Z" stroke="white" stroke-width="2"/>
</svg>
